<svg xmlns="http://www.w3.org/2000/svg" fill="white" viewBox="0 0 694 150"
	style="enable-background:new 0 0 694 150" xml:space="preserve"><path  d="M74.1 25.1c27.6 0 41 19 44.1 29h-11.6c-3.5-6.3-13.1-18.5-32.5-18.5-21.2 0-37.4 16.9-37.4 39.6 0 22.5 16.2 39.4 37.4 39.4 19.8 0 29.6-12.2 32.6-18.3h11.2c-2.8 9.3-16.2 28.7-43.8 28.7-27.9 0-49-21.1-49-49.9 0-28.5 21.3-50 49-50zm469.3 29c19.8 0 34.6 15.8 34.1 38h-58c.8 13 10.7 23.3 24.2 23.3s20-8.1 22.7-13.8h10.2c-2.6 9.3-12.6 23.3-32.9 23.3-19.8 0-34.4-15.3-34.4-35.4-.1-20 14.7-35.4 34.1-35.4zm-385.3 0c15.3 0 22.5 9.8 24.5 14.3V55.6h10.2v67.7h-10.2v-12.7c-2.2 4.6-9.3 14.3-24.5 14.3-19.3 0-34.4-15.2-34.4-35.4s15.1-35.4 34.4-35.4zm192.4 0c18.9 0 27.8 13.9 27.8 31v38.2H368v-38c0-12.7-6.8-21.6-19.1-21.6-12.2 0-19.5 9.1-19.5 22.1v37.4h-10.2V55.6h10.2V67c1.2-3.8 7.1-12.9 21.1-12.9zM425 26.8v51.5l45.2-51.5h13.4l-38.7 43.6 38.7 52.9h-12.8L437.3 79 425 92.8v30.5h-11.2V26.8H425zm216.1 27.3c18.9 0 27.8 13.9 27.8 31v38.2h-10.3v-38c0-12.7-6.8-21.6-19.1-21.6-12.2 0-19.5 9.1-19.5 22.1v37.4h-10.2V55.6H620V67c1.2-3.8 7.1-12.9 21.1-12.9zm-406.9 1.5 21.5 57.3 21.5-57.3h11.2l-26.2 67.7h-12.8L223 55.6h11.2zm72.6 0v67.7h-10.2V55.6h10.2zM499.5 25v98.3h-10.2V25h10.2zm98 30.6v67.7h-10.2V55.6h10.2zM215.3 25v98.3h-10.2V25h10.2zm-56.8 38.7c-14.1 0-24.4 11.1-24.4 25.7 0 14.5 10.3 25.7 24.4 25.7 14 0 24.3-11.2 24.3-25.7s-10.3-25.7-24.3-25.7zm384.9-.2c-13.1 0-21.6 9.9-23.3 19.6h46.4c-2.1-10.2-9.7-19.6-23.1-19.6zM306.9 31.9v11.8h-10.4V31.9h10.4zm290.7 0v11.8h-10.4V31.9h10.4z" style="fill-rule:evenodd;clip-rule:evenodd"/></svg>